<?xml version="1.0" encoding="UTF-8"?>
<svg version="1.1" xmlns="http://www.w3.org/2000/svg" width="746" height="786">
<path d="M0 0 C2.73565912 -0.00633755 5.47105638 -0.03223511 8.20660073 -0.05717802 C14.15335839 -0.10099415 20.0985568 -0.09661316 26.0453434 -0.06038284 C34.88814614 -0.00665627 43.72969095 -0.02739034 52.57253 -0.0627582 C68.36628906 -0.12345769 84.15933373 -0.11011515 99.95310821 -0.06564926 C113.77498985 -0.0269665 127.59661843 -0.01329275 141.41855049 -0.0243988 C142.33541464 -0.02510156 143.25227878 -0.02580432 144.19692669 -0.02652837 C147.91879608 -0.02941224 151.64066536 -0.03240907 155.36253452 -0.03557787 C190.27723012 -0.06492147 225.19148242 -0.02007096 260.10608183 0.05915353 C291.12314647 0.1291062 322.13964533 0.1377683 353.15675354 0.09338379 C388.00603261 0.0437723 422.85501519 0.0291525 457.70431191 0.0736413 C460.49350411 0.07714073 463.28269634 0.08061473 466.07188862 0.08405292 C467.92215396 0.0863341 469.77241926 0.08865052 471.62268451 0.09100243 C485.4349053 0.10800376 499.24694738 0.09869824 513.05915642 0.07695007 C528.76587833 0.0524378 544.47201206 0.06772094 560.17861968 0.13514239 C568.96836187 0.17179239 577.75689616 0.17834846 586.54664375 0.14133445 C592.41945268 0.11967083 598.29125886 0.13808058 604.16388491 0.18896499 C607.51012317 0.21685591 610.85195368 0.22157861 614.19845515 0.18978995 C636.13766559 -0.00168082 636.13766559 -0.00168082 642.23874239 5.46930102 C644.30919053 7.70481313 646.0186184 10.10147947 647.70143127 12.6373291 C648.8913681 14.02828014 650.09584728 15.40720642 651.32643127 16.7623291 C651.86139221 17.39010254 652.39635315 18.01787598 652.94752502 18.66467285 C655.68352975 21.74191647 658.63590278 24.59320106 661.58815002 27.46154785 C662.28553284 28.17955566 662.98291565 28.89756348 663.70143127 29.6373291 C664.38910583 30.28613541 665.0767804 30.93494171 665.78529358 31.60340881 C668.60989086 36.07574032 668.38579909 40.15811188 668.47291565 45.35583496 C668.52198059 46.97642822 668.52198059 46.97642822 668.57203674 48.62976074 C668.67123889 52.20380932 668.73746523 55.77722348 668.79518127 59.35217285 C668.81647598 60.57679293 668.83777069 61.801413 668.85971069 63.06314278 C668.95555741 68.88188659 669.03251484 74.70037154 669.08379889 80.51968092 C669.13794382 86.54195533 669.24587059 92.55717882 669.4299469 98.57702637 C669.62799282 105.05462173 669.72638048 111.52668081 669.75473022 118.00717354 C669.78147095 120.46633005 669.84208914 122.92537585 669.93829346 125.38279533 C670.62782231 144.06792654 670.62782231 144.06792654 665.740242 150.02944756 C660.9886655 154.30525131 655.71745206 157.44695174 650.06207752 160.37994194 C646.92313773 162.05188351 644.14737184 164.01871088 641.27955627 166.11779785 C639.50379507 167.35387795 637.72776106 168.58956623 635.95143127 169.8248291 C634.98809875 170.49498047 634.02476624 171.16513184 633.03224182 171.85559082 C626.91135992 176.11035641 620.77517398 180.34195596 614.62623596 184.55603027 C609.29426789 188.21612163 603.99610863 191.92355541 598.70143127 195.6373291 C592.78209334 199.78924999 586.85304574 203.92496378 580.88893127 208.0123291 C571.45516357 214.47841328 562.0742848 221.02027595 552.68922424 227.5567627 C546.90895094 231.58188846 541.12600307 235.60317025 535.34352112 239.62512207 C530.46320613 243.0197983 525.58361102 246.41550094 520.70533752 249.81311035 C511.76030658 256.04184917 502.81030089 262.26209548 493.82106018 268.42687988 C485.08067949 274.42717668 476.38887307 280.49765003 467.68922424 286.5567627 C461.90895094 290.58188846 456.12600307 294.60317025 450.34352112 298.62512207 C445.46320613 302.0197983 440.58361102 305.41550094 435.70533752 308.81311035 C426.76030658 315.04184917 417.81030089 321.26209548 408.82106018 327.42687988 C400.08067949 333.42717668 391.38887307 339.49765003 382.68922424 345.5567627 C376.90895094 349.58188846 371.12600307 353.60317025 365.34352112 357.62512207 C360.46320613 361.0197983 355.58361102 364.41550094 350.70533752 367.81311035 C341.76030658 374.04184917 332.81030089 380.26209548 323.82106018 386.42687988 C315.08067949 392.42717668 306.38887307 398.49765003 297.68922424 404.5567627 C291.90895094 408.58188846 286.12600307 412.60317025 280.34352112 416.62512207 C275.46320613 420.0197983 270.58361102 423.41550094 265.70533752 426.81311035 C256.76030658 433.04184917 247.81030089 439.26209548 238.82106018 445.42687988 C229.08018658 452.11401797 219.39663235 458.88424987 209.70143127 465.6373291 C187.28045601 481.25439793 187.28045601 481.25439793 176.62550354 488.55651855 C170.42810804 492.81072351 164.27637052 497.12949044 158.12257385 501.44641113 C152.36427222 505.48257806 146.58102423 509.47996564 140.77955627 513.45373535 C135.39578777 517.14700054 130.0462204 520.88793145 124.70143127 524.6373291 C118.78212096 528.7892889 112.8530453 532.92496408 106.88893127 537.0123291 C97.45516357 543.47841328 88.0742848 550.02027595 78.68922424 556.5567627 C72.90895094 560.58188846 67.12600307 564.60317025 61.34352112 568.62512207 C56.46320613 572.0197983 51.58361102 575.41550094 46.70533752 578.81311035 C37.76115415 585.04125898 28.81319588 591.2627243 19.82325745 597.42468262 C13.18969236 601.97679958 6.5915523 606.57978614 -0.00169373 611.19006348 C-10.37618927 618.42650097 -20.84529074 625.51009411 -31.29856873 632.6373291 C-31.62856873 668.2773291 -31.95856873 703.9173291 -32.29856873 740.6373291 C184.51143127 740.6373291 401.32143127 740.6373291 624.70143127 740.6373291 C624.70143127 709.9473291 624.70143127 679.2573291 624.70143127 647.6373291 C611.50417053 647.64780273 598.30690979 647.65827637 584.70973206 647.66906738 C542.53052175 647.70113658 500.35131141 647.7234008 458.17209209 647.73945976 C451.62539392 647.74196131 445.07869579 647.74454994 438.53199768 647.74719238 C437.22861426 647.747717 435.92523084 647.74824162 434.58235095 647.74878214 C413.45108787 647.75749551 392.31983562 647.77327059 371.18857898 647.79163469 C349.52171223 647.81030786 327.85485118 647.82144034 306.18797672 647.82550609 C292.80785513 647.82825653 279.42776416 647.83695757 266.04765199 647.85316204 C256.88456624 647.86369707 247.72149643 647.86693767 238.55840506 647.86433186 C233.26408963 647.86304511 227.96982785 647.86507991 222.67552185 647.87574005 C217.83591581 647.88541403 212.99639992 647.88600246 208.15678988 647.87912689 C206.39902522 647.8782761 204.64125512 647.88086258 202.88350131 647.88709547 C200.50778826 647.89503483 198.13240763 647.89084906 195.75670052 647.88342476 C195.06245993 647.88867879 194.36821935 647.89393281 193.65294117 647.89934605 C188.92972287 647.8656207 188.92972287 647.8656207 186.70143127 645.6373291 C186.17211747 642.83077621 186.17211747 642.83077621 186.70143127 639.6373291 C188.85083869 637.60552433 190.72758922 636.138892 193.17045212 634.54217529 C194.56250803 633.58323686 195.95309501 632.62216326 197.34236097 631.65918732 C198.0654985 631.16464711 198.78863603 630.67010691 199.53368682 630.16058064 C202.32236895 628.20100264 204.98834938 626.10573286 207.66504352 623.99713254 C229.42961513 606.97932812 246.66826142 600.9793349 274.09611177 601.2653923 C278.75203743 601.28725934 283.40514262 601.16959735 288.05982971 601.07263184 C297.12512333 600.90623492 306.18630709 600.86774855 315.25294992 600.88213491 C322.63782747 600.89269832 330.02144817 600.86165437 337.40608978 600.80273438 C360.74323544 600.6201339 384.07650307 600.57521817 407.41422203 600.63884878 C425.71473265 600.68343727 444.00627934 600.51682121 462.30469605 600.25196505 C481.20964 599.98050703 500.11031294 599.86090615 519.01723695 599.89770126 C529.58702957 599.91550361 540.14845388 599.87501491 550.71656036 599.67456055 C624.02856197 598.35817675 624.02856197 598.35817675 645.67617416 618.02742767 C663.08192815 635.36377051 670.66980277 653.11702849 671.23670959 677.77270508 C671.16259077 679.77250768 671.05979304 681.77148761 670.92604065 683.76818848 C670.82726596 686.04300343 670.73258038 688.31799897 670.64161682 690.59313965 C670.59096069 691.72328491 670.54030457 692.85343018 670.4881134 694.01782227 C670.35542913 698.60910649 670.50212148 703.17478325 670.64851665 707.76431751 C670.7576699 712.31272413 670.69243039 716.84722219 670.57967567 721.39505577 C670.54479346 723.50107344 670.55645512 725.60861159 670.62459373 727.71381569 C671.02831839 745.32209203 661.28620673 757.78241287 649.76256858 770.07938617 C632.59420887 787.44850429 613.77449567 788.93138312 590.47175369 789.14222398 C584.43677998 789.16601996 578.40581065 789.06051628 572.37233506 788.93645227 C564.23670387 788.77668106 556.10523072 788.8266376 547.96868251 788.88010974 C532.95936844 788.97287364 517.95505801 788.90320015 502.94656754 788.73522949 C488.10416951 788.5692863 473.26397979 788.47153787 458.42061996 788.4642334 C457.02962117 788.4634545 457.02962117 788.4634545 455.6105214 788.46265987 C451.84543505 788.46075757 448.08034895 788.45933557 444.3152622 788.45854987 C410.09732718 788.4511903 375.88246918 788.2744596 341.66578674 787.99182129 C309.39985681 787.72532022 277.13594664 787.56976725 244.86891174 787.54064941 C243.37532824 787.53926402 243.37532824 787.53926402 241.85157134 787.53785065 C238.83912666 787.53506075 235.82668196 787.53230902 232.81423724 787.52956581 C228.81264912 787.52591288 224.81106107 787.52220488 220.80947304 787.51846313 C219.82200018 787.51756753 218.83452732 787.51667192 217.81713105 787.51574917 C186.02664212 787.48588387 154.23652801 787.35420257 122.44639189 787.20783818 C113.15203847 787.16563937 103.85772299 787.12989672 94.56329775 787.10805511 C93.6438581 787.10587796 92.72441845 787.1037008 91.777117 787.10145766 C90.40092554 787.09820277 90.40092554 787.09820277 88.99693222 787.09488213 C71.32657587 787.05291085 53.65748545 786.96958085 35.98788758 786.79580891 C27.9171314 786.71740893 19.84751462 786.65847771 11.77634048 786.65803909 C5.08299707 786.65766733 -1.60823348 786.61419822 -8.30083885 786.51248851 C-11.66900971 786.46254197 -15.03131702 786.43955646 -18.40020232 786.45956779 C-40.44572064 786.56988809 -40.44572064 786.56988809 -47.54926763 780.04480696 C-50.0251933 777.3834874 -52.14387456 774.56588138 -54.29856873 771.6373291 C-55.67424223 770.34235155 -57.08111256 769.07729416 -58.54856873 767.8873291 C-62.36203358 764.65681429 -65.8352291 761.1367987 -69.31809998 757.55529785 C-71.34792149 755.47415843 -71.34792149 755.47415843 -74.29856873 753.6373291 C-74.70961189 751.15744114 -74.70961189 751.15744114 -74.76026917 747.96607971 C-74.78607056 746.7591748 -74.81187195 745.5522699 -74.8384552 744.30879211 C-74.85176167 742.96396261 -74.86465667 741.61912899 -74.87718201 740.27429199 C-74.90088428 738.8632729 -74.9256911 737.452272 -74.95152283 736.04129028 C-75.03024377 731.39769903 -75.07613287 726.75402619 -75.11888123 722.10998535 C-75.13496207 720.50982551 -75.1510946 718.90966618 -75.16727829 717.30950737 C-75.23219371 710.64842415 -75.28839151 703.98736278 -75.32214546 697.32604313 C-75.37078112 687.79102123 -75.4700462 678.25968397 -75.641348 668.72605139 C-75.75775187 662.01761515 -75.81607883 655.3101595 -75.83190715 648.60074037 C-75.84283659 644.59636481 -75.87850132 640.59591547 -75.97621536 636.59263802 C-76.58683655 610.31252941 -76.58683655 610.31252941 -71.07518005 604.32362366 C-68.03167654 601.78239884 -64.83143121 600.0255915 -61.19005203 598.48786545 C-58.18051201 597.13457665 -55.65581065 595.2547681 -52.97044373 593.34436035 C-50.99892234 592.0424853 -49.02500193 590.74423516 -47.04856873 589.4498291 C-40.24430332 584.98341667 -33.56044824 580.41793618 -27.00022888 575.5994873 C-22.60538854 572.40760841 -18.10901733 569.36882169 -13.61106873 566.3248291 C-11.67730947 565.01127063 -9.74371678 563.69746693 -7.81028748 562.38342285 C-6.40335632 561.42798584 -6.40335632 561.42798584 -4.96800232 560.45324707 C-1.27825644 557.943248 2.40082631 555.41797503 6.07643127 552.8873291 C7.03102234 552.23026978 7.03102234 552.23026978 8.00489807 551.55993652 C9.2693888 550.6893752 10.53379409 549.81868977 11.79811096 548.94787598 C15.09790083 546.67577849 18.39980028 544.40674997 21.70143127 542.1373291 C23.0347741 541.22067624 24.36810745 540.30400959 25.70143127 539.3873291 C33.70143128 533.8873291 33.70143128 533.8873291 35.69972229 532.5135498 C37.03880918 531.59289694 38.37783874 530.6721607 39.71681213 529.75134277 C42.9616613 527.51999218 46.20734929 525.28988963 49.45533752 523.06311035 C57.26849254 517.70355661 65.05390267 512.30564717 72.82643127 506.8873291 C82.37960296 500.23001698 91.98363297 493.65071296 101.61158752 487.10217285 C108.02336936 482.74101133 114.41194804 478.34642423 120.79811096 473.94787598 C124.09790083 471.67577849 127.39980028 469.40674997 130.70143127 467.1373291 C132.0347741 466.22067624 133.36810745 465.30400959 134.70143127 464.3873291 C206.70143127 414.8873291 206.70143127 414.8873291 208.69972229 413.5135498 C210.03880918 412.59289694 211.37783874 411.6721607 212.71681213 410.75134277 C215.9616613 408.51999218 219.20734929 406.28988963 222.45533752 404.06311035 C230.26849254 398.70355661 238.05390267 393.30564717 245.82643127 387.8873291 C255.37960296 381.23001698 264.98363297 374.65071296 274.61158752 368.10217285 C281.02336936 363.74101133 287.41194804 359.34642423 293.79811096 354.94787598 C297.09790083 352.67577849 300.39980028 350.40674997 303.70143127 348.1373291 C305.0347741 347.22067624 306.36810745 346.30400959 307.70143127 345.3873291 C379.70143128 295.8873291 379.70143128 295.8873291 381.69972229 294.5135498 C383.03880918 293.59289694 384.37783874 292.6721607 385.71681213 291.75134277 C388.9616613 289.51999218 392.20734929 287.28988963 395.45533752 285.06311035 C403.26849254 279.70355661 411.05390267 274.30564717 418.82643127 268.8873291 C428.37960296 262.23001698 437.98363297 255.65071296 447.61158752 249.10217285 C454.02336936 244.74101133 460.41194804 240.34642423 466.79811096 235.94787598 C470.09790083 233.67577849 473.39980028 231.40674997 476.70143127 229.1373291 C478.0347741 228.22067624 479.36810745 227.30400959 480.70143127 226.3873291 C568.70143128 165.8873291 568.70143128 165.8873291 570.69972229 164.5135498 C572.03880918 163.59289694 573.37783874 162.6721607 574.71681213 161.75134277 C577.9616613 159.51999218 581.20734929 157.28988963 584.45533752 155.06311035 C594.41838728 148.229101 604.34098435 141.33751806 614.25611877 134.4342041 C615.60721741 133.49544434 615.60721741 133.49544434 616.98561096 132.53771973 C618.84792651 131.2345676 620.70239447 129.92014944 622.55006409 128.59631348 C623.44821838 127.95500488 624.34637268 127.31369629 625.27174377 126.6529541 C626.07627991 126.07319824 626.88081604 125.49344238 627.70973206 124.89611816 C629.70143127 123.6373291 629.70143127 123.6373291 631.70143127 123.6373291 C631.70143127 97.5673291 631.70143127 71.4973291 631.70143127 44.6373291 C417.53143127 44.6373291 203.36143127 44.6373291 -17.29856873 44.6373291 C-17.29856873 75.6573291 -17.29856873 106.6773291 -17.29856873 138.6373291 C-4.56359802 138.60703613 8.17137268 138.57674316 21.29225159 138.54553223 C62.20435615 138.44828746 103.11646192 138.3515582 144.02856846 138.25514683 C150.40096805 138.2401295 156.77336764 138.22510765 163.14576721 138.21008301 C164.41420868 138.20709239 165.68265014 138.20410178 166.98952922 138.20102054 C187.4328278 138.15281049 207.87612549 138.10423633 228.31942287 138.05552369 C249.35142524 138.00541653 270.38342853 137.95570974 291.41543269 137.90636206 C304.35627442 137.87598654 317.29711536 137.84531177 330.23795542 137.81423366 C339.15464989 137.79284991 348.07134523 137.77186074 356.98804131 137.75115931 C362.10526622 137.73926796 367.22249063 137.72722447 372.33971405 137.71470451 C374.24831136 137.71006531 376.15690867 137.70542726 378.06550598 137.70079041 C379.46137189 137.69735262 379.46137189 137.69735262 380.8854371 137.69384539 C385.42518498 137.68296182 389.96492538 137.67371517 394.50468302 137.66809845 C396.27669943 137.66580711 398.0487158 137.66348016 399.82073212 137.66111755 C400.6957735 137.65997259 401.57081489 137.65882763 402.47237268 137.65764797 C408.29866277 137.6477239 414.12464325 137.6188862 419.95081498 137.58085856 C424.05213021 137.555449 428.15345958 137.53785045 432.25481948 137.52140814 C434.21436747 137.51161405 436.17390125 137.49826384 438.13339916 137.48117107 C440.83653233 137.45792074 443.53945732 137.44697796 446.24267197 137.43878937 C447.44424221 137.42374397 447.44424221 137.42374397 448.67008659 137.40839463 C455.7570334 137.40974486 455.7570334 137.40974486 458.70143127 139.6373291 C459.76393127 142.4498291 459.76393127 142.4498291 459.70143127 145.6373291 C457.61158752 147.94592285 457.61158752 147.94592285 454.70143127 150.6373291 C453.64636025 151.64213487 452.5916892 152.64736077 451.53736877 153.6529541 C445.39374568 159.41414993 439.21241081 165.0293386 432.59205627 170.2467041 C429.74205243 172.46300817 429.74205243 172.46300817 427.86014318 174.79936016 C422.97108601 180.11507096 418.83239621 182.45101079 411.61162567 182.76989937 C408.34669984 182.85162346 405.08947333 182.82073436 401.82411194 182.78018188 C400.0035457 182.79056109 398.18299834 182.8048612 396.36249018 182.82272708 C391.37577924 182.86022096 386.3906228 182.84176641 381.40390706 182.81385112 C376.01995892 182.79346417 370.63627567 182.82493065 365.25238037 182.84967041 C354.71174843 182.88967338 344.1716935 182.88105388 333.63103902 182.85495664 C325.06390423 182.83462438 316.49693106 182.83187751 307.92977905 182.84167099 C306.71008687 182.84305009 305.4903947 182.84442918 304.23374215 182.84585007 C301.75589775 182.84872762 299.27805341 182.85164554 296.80020911 182.85460339 C273.56980274 182.88026238 250.33971611 182.85076722 227.10936219 182.8024001 C207.1800936 182.76219055 187.25129682 182.76917492 167.32203674 182.81066895 C144.17432751 182.85884148 121.02689845 182.87779049 97.8791461 182.85015857 C95.41045861 182.84729165 92.94177107 182.84446232 90.4730835 182.84167099 C89.25846787 182.84028251 88.04385224 182.83889403 86.79243007 182.83746348 C78.23637866 182.82969527 69.68050507 182.84280341 61.1244812 182.86398697 C50.69623939 182.88923854 40.26860719 182.88237921 29.84043515 182.83446027 C24.52043558 182.81081917 19.20145206 182.80152169 13.88146019 182.83130264 C9.00907838 182.85816523 4.13865212 182.84331893 -0.73355275 182.79550467 C-2.4938312 182.78546918 -4.2542756 182.79052722 -6.01444691 182.81238677 C-20.77859698 182.98164687 -20.77859698 182.98164687 -27.16980743 177.28074455 C-28.57086822 175.75535808 -29.94957503 174.20894967 -31.29856873 172.6373291 C-32.5910439 171.46895493 -33.9002834 170.31842994 -35.23606873 169.1998291 C-39.34814102 165.61941868 -43.37120008 161.94431726 -47.39231873 158.2623291 C-50.07160801 155.7433044 -50.07160801 155.7433044 -52.29375839 154.2076025 C-57.8316901 150.02857708 -57.8316901 150.02857708 -59.0594101 146.37010384 C-59.36558969 143.70614456 -59.42572728 141.13934858 -59.39720154 138.45788574 C-59.41764526 137.45843933 -59.43808899 136.45899292 -59.45915222 135.42926025 C-59.51461616 132.13435167 -59.51091831 128.84280457 -59.50169373 125.54748535 C-59.51725795 123.24168166 -59.53460001 120.93588935 -59.55363464 118.63011169 C-59.58346341 113.79546999 -59.58234264 108.9619963 -59.56126404 104.12731934 C-59.53817922 97.96954456 -59.60556168 91.81662004 -59.69864273 85.65964603 C-59.75798131 80.89345435 -59.76102646 76.1284018 -59.74860382 71.36190605 C-59.75064062 69.09471528 -59.77128843 66.82745387 -59.8118515 64.56062508 C-60.04680492 49.58405071 -58.23408636 40.33133261 -47.80402374 29.27320671 C-45.90742447 27.21229872 -44.22804965 25.02780659 -42.55173111 22.78659153 C-41.36104189 21.19968621 -40.12391577 19.64782158 -38.87874776 18.10329384 C-37.10463328 15.82915098 -35.89446654 13.84664287 -34.55955356 11.23468637 C-26.84563517 -2.36916053 -14.12607331 -0.17492778 0 0 Z " fill="#FAC30A" transform="translate(74.29856872558594,-0.6373291015625)"/>
<path d="M0 0 C3.79196097 0.0963759 7.5835441 0.13516476 11.37648773 0.1713953 C19.20073417 0.24716771 27.02545219 0.35794062 34.84710693 0.5758667 C35.56388107 0.58909973 36.28065521 0.60233276 37.01914978 0.6159668 C40.64426141 0.73457878 42.2215076 0.9424105 45.32171631 3.00921631 C46.4603187 6.01837977 46.58970352 7.41412706 45.25921631 10.36859131 C42.81114331 13.70507789 39.86387304 15.71671412 36.44671631 17.94671631 C35.39735649 18.64965317 35.39735649 18.64965317 34.32679749 19.36679077 C31.99796826 20.92378898 29.65986048 22.46624921 27.32171631 24.00921631 C25.66628576 25.11278182 24.01159689 26.21746062 22.35760498 27.32318115 C18.8385948 29.67438184 15.31634043 32.02060949 11.79193115 34.3637085 C3.62028504 39.80222773 -4.51023015 45.30173665 -12.64422607 50.79632568 C-16.2839709 53.25427581 -19.92558061 55.70945553 -23.56716919 58.16467285 C-37.26857706 67.40277029 -50.95816386 76.65827235 -64.64051819 85.92456055 C-68.73973909 88.69979029 -72.84277812 91.46927772 -76.94856262 94.23478699 C-95.64556646 106.82330036 -95.64556646 106.82330036 -114.00982666 119.89007568 C-118.80168538 123.39489848 -123.67674139 126.73702529 -128.63922119 129.99749756 C-132.26479696 132.39746095 -135.84734645 134.85587097 -139.42828369 137.32171631 C-140.0959375 137.77852783 -140.76359131 138.23533936 -141.45147705 138.70599365 C-145.02779953 141.15801162 -148.57114519 143.64589317 -152.08062744 146.19281006 C-152.79831299 146.70609863 -153.51599854 147.21938721 -154.25543213 147.74822998 C-155.63341849 148.73485164 -157.00305329 149.73327322 -158.362854 150.74481201 C-163.00372425 154.04198843 -163.00372425 154.04198843 -166.57281494 153.86859131 C-168.67828369 153.00921631 -168.67828369 153.00921631 -169.67828369 152.00921631 C-170.10900469 140.72579866 -168.37629054 129.49198319 -167.07208252 118.30682373 C-166.76345659 115.64627225 -166.47265868 112.98466967 -166.19708252 110.32049561 C-165.79228072 106.45881492 -165.34721015 102.6036561 -164.89312744 98.74749756 C-164.77613998 97.55989334 -164.65915253 96.37228912 -164.53862 95.1486969 C-163.38516347 85.96443398 -163.38516347 85.96443398 -159.45806885 82.496521 C-158.22195761 81.63231156 -156.96182129 80.80127703 -155.67828369 80.00921631 C-154.60119141 79.24987793 -153.52409912 78.49053955 -152.41436768 77.70819092 C-151.27482255 76.95897191 -150.13217288 76.21445899 -148.98687744 75.47406006 C-147.65947554 74.60213479 -146.33251271 73.72954083 -145.00592041 72.85638428 C-144.3045697 72.39624939 -143.60321899 71.9361145 -142.88061523 71.46203613 C-138.97178211 68.88348238 -135.09398336 66.25897442 -131.21343994 63.63812256 C-129.50901556 62.48837897 -127.80458841 61.33863949 -126.10015869 60.18890381 C-124.31368432 58.98319841 -122.52722638 57.77746866 -120.74078369 56.57171631 C-118.85929015 55.30216005 -116.97777941 54.03262927 -115.09625244 52.76312256 C-111.21996626 50.14761745 -107.34385555 47.53185254 -103.46783447 44.91595459 C-98.76243889 41.7405058 -94.05618608 38.56633064 -89.34953308 35.39274597 C-85.80259574 33.00103749 -82.25601697 30.60879765 -78.70950317 28.21646118 C-77.05707332 27.10193816 -75.40451172 25.98761044 -73.75180054 24.87350464 C-72.19033478 23.82084809 -70.63000494 22.76650438 -69.07087708 21.71038818 C-67.53755389 20.67992889 -65.99614131 19.66140639 -64.44694519 18.65496826 C-60.58864852 16.12374222 -57.10710404 13.55973201 -53.76226807 10.37420654 C-38.59202021 -3.27010444 -19.12978295 -0.55530151 0 0 Z " fill="#FAC30A" transform="translate(241.67828369140625,302.99078369140625)"/>
<path d="M0 0 C2.625 0.9375 2.625 0.9375 5 2 C4.37748758 14.79395221 3.17092355 27.51197071 1.74560547 40.23974609 C1.49672177 42.5131462 1.2605686 44.78797305 1.03662109 47.06396484 C0.70786063 50.39296188 0.33883125 53.71532876 -0.0390625 57.0390625 C-0.13103912 58.05159088 -0.22301575 59.06411926 -0.31777954 60.10733032 C-0.9078424 64.91908742 -1.47537804 68.11153466 -5.19775391 71.3972168 C-6.4428758 72.29651275 -7.71052685 73.16554165 -9 74 C-9.55511261 74.39316406 -10.11022522 74.78632813 -10.68215942 75.19140625 C-12.36381713 76.36898882 -14.07303261 77.49067572 -15.796875 78.60546875 C-17.12473575 79.47776435 -18.45219202 80.35067592 -19.77929688 81.22412109 C-20.46983154 81.67704529 -21.16036621 82.12996948 -21.87182617 82.59661865 C-25.50157526 84.99018355 -29.10150922 87.42767489 -32.703125 89.86328125 C-34.25496011 90.91130161 -35.8067994 91.95931579 -37.35864258 93.00732422 C-38.98910159 94.1090398 -40.61955389 95.21076532 -42.25 96.3125 C-45.77980304 98.69682911 -49.30981063 101.08085529 -52.83984375 103.46484375 C-53.74615036 104.07696716 -54.65245697 104.68909058 -55.58622742 105.31976318 C-62.22289311 109.80161424 -68.86270504 114.27877925 -75.50390625 118.75390625 C-77.41308772 120.04060608 -79.32226742 121.32730853 -81.23144531 122.61401367 C-83.97822458 124.46518547 -86.72513364 126.31616272 -89.47253418 128.16641235 C-91.18916282 129.32251207 -92.90464881 130.48031045 -94.618927 131.63989258 C-96.30283435 132.77070415 -97.99487856 133.88949206 -99.6947937 134.99609375 C-103.7613578 137.66696484 -107.47616243 140.34560347 -111.00537109 143.7019043 C-126.18031397 157.37413943 -145.98946812 154.62934832 -165.1418457 154.12579346 C-168.98243715 154.04074406 -172.82221659 154.02046832 -176.66362 154.00208378 C-181.25530867 153.97671739 -185.8462419 153.9133078 -190.4375 153.84765625 C-191.30869476 153.83861834 -192.17988953 153.82958042 -193.07748413 153.82026863 C-195.53053743 153.78813901 -197.98131683 153.72879014 -200.43359375 153.66040039 C-201.52278107 153.65133667 -201.52278107 153.65133667 -202.63397217 153.64208984 C-205.8560731 153.52470615 -207.57880795 153.39635257 -209.97157288 151.1446991 C-211.48825032 147.98179462 -211.11228191 146.29403496 -210 143 C-207.68383789 140.71777344 -207.68383789 140.71777344 -204.66015625 138.609375 C-204.11964127 138.2262616 -203.57912628 137.84314819 -203.02223206 137.44842529 C-201.36081856 136.27924609 -199.68350725 135.13707008 -198 134 C-197.06784668 133.35998047 -196.13569336 132.71996094 -195.17529297 132.06054688 C-192.27885772 130.09829582 -189.36112492 128.17148959 -186.4375 126.25 C-184.06089402 124.67820051 -181.68661394 123.10290413 -179.3125 121.52734375 C-178.67078354 121.1018071 -178.02906708 120.67627045 -177.36790466 120.23783875 C-168.19120753 114.14561315 -159.06713698 107.97490723 -149.9375 101.8125 C-149.01456146 101.1896814 -148.09162292 100.56686279 -147.14071655 99.9251709 C-131.43146061 89.32378845 -115.72941419 78.71174953 -100.03761292 68.08454895 C-95.93844009 65.30935893 -91.83545408 62.53990391 -87.72972107 59.77442932 C-69.03271723 47.18591595 -69.03271723 47.18591595 -50.66845703 34.11914062 C-45.87804067 30.61537279 -41.00505865 27.27349368 -36.04296875 24.015625 C-32.39238985 21.59752652 -28.7900164 19.11388615 -25.1875 16.625 C-19.6931461 12.83487647 -14.17630727 9.08126833 -8.625 5.375 C-7.98844482 4.94912598 -7.35188965 4.52325195 -6.69604492 4.08447266 C-2.24809294 1.12404647 -2.24809294 1.12404647 0 0 Z " fill="#FAC30A" transform="translate(675,329)"/>
</svg>
